<?xml version="1.0" encoding="UTF-8"?>
<svg width="14px" height="14px" viewBox="0 0 14 14" version="1.1" xmlns="http://www.w3.org/2000/svg" xmlns:xlink="http://www.w3.org/1999/xlink">
    <title>Icons/24px/Arrow Copy</title>
    <g id="דף-כתבה" stroke="none" stroke-width="1" fill="none" fill-rule="evenodd">
        <g transform="translate(-543.000000, -719.000000)" fill="#008128" fill-rule="nonzero" id="8">
            <g transform="translate(260.000000, 663.000000)">
                <g id="Group-130" transform="translate(45.000000, 0.000000)">
                    <g id="Frame-152" transform="translate(73.000000, 50.000000)">
                        <g id="Icons/24px/Arrow-Copy" transform="translate(165.000018, 6.080834)">
                            <g id="" transform="translate(6.999991, 6.919184) scale(1, -1) rotate(-180.000000) translate(-6.999991, -6.919184) translate(0.000000, -0.000000)">
                                <path d="M6.81562706,0.109840131 L6.19691516,0.728582552 C6.05049217,0.875005543 6.05049217,1.11243173 6.19691516,1.25891576 L11.0447124,6.10668252 L0.374999106,6.10668252 C0.167907315,6.10668252 7.44687355e-16,6.27458984 7.44687355e-16,6.48168163 L7.44687355e-16,7.35667954 C7.44687355e-16,7.56377133 0.167907315,7.73167865 0.374999106,7.73167865 L11.0447124,7.73167865 L6.19691516,12.5794759 C6.05049217,12.7259294 6.05049217,12.9633556 6.19691516,13.1098091 L6.81562706,13.7285516 C6.96208057,13.8749745 7.19950676,13.8749745 7.34599079,13.7285516 L13.8901646,7.18437771 C14.0365876,7.0379242 14.0365876,6.80049801 13.8901646,6.65401398 L7.34596027,0.109840131 C7.19950676,-0.0366133771 6.96208057,-0.0366133771 6.81562706,0.109840131 Z" id="Path"></path>
                            </g>
                        </g>
                    </g>
                </g>
            </g>
        </g>
    </g>
</svg>