<?xml version="1.0" encoding="UTF-8"?>
<svg width="18px" height="18px" viewBox="0 0 18 18" version="1.1" xmlns="http://www.w3.org/2000/svg" xmlns:xlink="http://www.w3.org/1999/xlink">
    <title>Right</title>
    <g id="דף-לובי" stroke="none" stroke-width="1" fill="none" fill-rule="evenodd">
        <g id="אינדקס-רופאים---תחום-רפואי-פתוח" transform="translate(-44.000000, -847.000000)">
            <g id="Index" transform="translate(20.000000, 644.000000)">
                <g id="Collapses" transform="translate(0.000000, 180.000000)">
                    <g id="Group-9" transform="translate(24.000000, 20.000000)">
                        <g id="Right" transform="translate(9.000000, 12.000000) scale(1, -1) rotate(-270.000000) translate(-9.000000, -12.000000) translate(0.000000, 3.000000)">
                            <path d="M0,0 L18,0 L18,18 L0,18 Z" id="Icons/18px/Chevron-Arrow-(Background)" transform="translate(9.000000, 9.000000) scale(1, -1) rotate(-180.000000) translate(-9.000000, -9.000000) "></path>
                            <path d="M14.859375,15.6474609 L8.49609375,9.24902344 L14.859375,2.88574219 C15,2.74511719 15,2.46386719 14.859375,2.28808594 L14.15625,1.62011719 C13.9804688,1.44433594 13.734375,1.44433594 13.5585938,1.62011719 L6.17578125,8.96777344 C6.03515625,9.14355469 6.03515625,9.38964844 6.17578125,9.56542969 L13.5585938,16.9130859 C13.734375,17.0888672 13.9804688,17.0888672 14.15625,16.9130859 L14.859375,16.2451172 C15,16.0693359 15,15.7880859 14.859375,15.6474609 Z" id="" fill="#123985" fill-rule="nonzero" transform="translate(10.517578, 9.266602) scale(1, -1) rotate(-180.000000) translate(-10.517578, -9.266602) "></path>
                        </g>
                    </g>
                </g>
            </g>
        </g>
    </g>
</svg>