<?xml version="1.0" encoding="UTF-8"?>
<svg width="15px" height="14px" viewBox="0 0 15 14" version="1.1" xmlns="http://www.w3.org/2000/svg" xmlns:xlink="http://www.w3.org/1999/xlink">
    <title>Arrow left</title>
    <g id="דף-בית" stroke="none" stroke-width="1" fill="none" fill-rule="evenodd">
        <g id="דף-בית-עם-כיתוב-שחור-על-ירוק" transform="translate(-1536.000000, -4350.000000)" fill="#ffffff" fill-rule="nonzero">
            <g id="Section-3" transform="translate(168.000000, 3912.000000)">
                <g id="1" transform="translate(1048.000000, 78.000000)">
                    <g id="Buttons/Link+Icon" transform="translate(0.000000, 233.000000)">
                        <g id="Link" transform="translate(320.900015, 122.000000)">
                            <g id="Arrow-left" transform="translate(0.000000, 5.080857)">
                                <path d="M7.18435482,13.7284982 L7.80306672,13.1097557 C7.94948971,12.9633327 7.94948971,12.7259065 7.80306672,12.5794225 L2.95526944,7.73165576 L13.6249523,7.73165576 C13.832044,7.73165576 13.9999514,7.56374845 13.9999514,7.35665665 L13.9999514,6.48165874 C13.9999514,6.27456695 13.832044,6.10665963 13.6249523,6.10665963 L2.95526944,6.10665963 L7.80306672,1.25886236 C7.94948971,1.11240885 7.94948971,0.874982655 7.80306672,0.728529147 L7.18435482,0.109817243 C7.03790131,-0.0366057477 6.80047512,-0.0366057477 6.65399109,0.109817243 L0.109817243,6.65399109 C-0.0366057477,6.8004446 -0.0366057477,7.03787079 0.109817243,7.18435482 L6.65399109,13.7285287 C6.8004446,13.8749517 7.03787079,13.8749517 7.18435482,13.7284982 Z" id="Path"></path>
                            </g>
                        </g>
                    </g>
                </g>
            </g>
        </g>
    </g>
</svg>