<?xml version="1.0" encoding="UTF-8"?>
<svg width="15px" height="15px" viewBox="0 0 15 15" version="1.1" xmlns="http://www.w3.org/2000/svg" xmlns:xlink="http://www.w3.org/1999/xlink">
    <title>Elements/Menu Copy</title>
    <g id="דף-בית" stroke="none" stroke-width="1" fill="none" fill-rule="evenodd">
        <g id="תפריט-צד---תת-קטגוריה" transform="translate(-66.500000, -27.500000)" fill="#123985">
            <g id="Menu" transform="translate(39.000000, 0.000000)">
                <g id="Elements/Menu-Copy" transform="translate(27.500000, 27.500000)">
                    <path d="M1.70070246,14.8903393 L7.50024606,9.09125346 L12.3078763,13.8988837 L13.2993319,14.8903393 C13.4455919,15.0365536 13.6832703,15.0365536 13.8294846,14.8903393 L14.8903393,13.8294846 C15.0365536,13.6832703 15.0365536,13.4455919 14.8903393,13.2993319 L9.09125346,7.50024606 L13.8988837,2.69261581 L14.8903393,1.70116024 C15.0365536,1.55490017 15.0365536,1.31722184 14.8903393,1.17100755 L13.8294846,0.110152829 C13.6832703,-0.0360614613 13.4455919,-0.0360614613 13.2993319,0.110152829 L7.50024606,5.90923865 L1.70116024,0.109695051 C1.55490017,-0.0365650171 1.31722184,-0.0365650171 1.17100755,0.109695051 L0.109695051,1.17050399 C-0.0365650171,1.31676406 -0.0365650171,1.55444239 0.109695051,1.70070246 L5.90923865,7.50024606 L0.109695051,13.2993319 C-0.0365650171,13.4455919 -0.0365650171,13.6832703 0.109695051,13.8294846 L1.17050399,14.8903393 C1.31676406,15.0365536 1.55444239,15.0365536 1.70070246,14.8903393 Z" id=""></path>
                </g>
            </g>
        </g>
    </g>
</svg>