<?xml version="1.0" encoding="UTF-8"?>
<svg width="40.7471696px" height="41.3681641px" viewBox="0 0 40.7471696 41.3681641" version="1.1" xmlns="http://www.w3.org/2000/svg" xmlns:xlink="http://www.w3.org/1999/xlink">
    <title>Phone</title>
    <g id="רכיב-חירום" stroke="none" stroke-width="1" fill="none" fill-rule="evenodd">
        <g id="באנר-חירום" transform="translate(-858.000000, -734.000000)">
            <g id="Menu" transform="translate(484.000000, 691.000000)">
                <g id="Group-81" transform="translate(363.000000, 39.000000)">
                    <g id="Group-13" transform="translate(11.000000, 4.000000)">
                        <path d="M16.9373646,23.8095703 C13.2073646,20.0795703 13.5073636,13.6995704 16.1473637,10.5595703 L6.64736414,1.05957031 C5.61736417,1.3495703 3.63736421,2.87957031 2.92736423,3.58957028 C-1.49263585,8.02957034 1.54736423,20.299571 10.997364,29.7495708 C20.4473639,39.1995707 32.7273641,42.2395687 37.1573639,37.8195686 C37.8773639,37.1095687 39.4073627,35.1295674 39.6873627,34.0995674 L30.1973648,24.6095715 L30.1873646,24.5995712 C27.0473645,27.2395713 20.6573646,27.5395703 16.9373646,23.8095703 Z" id="Fill-1" fill="#CCEFFC"></path>
                        <path d="M37.7172089,37.2496872 C38.4372089,36.5396872 39.3972079,35.4596853 39.6772079,34.4196854 L30.1872082,24.9296875 C28.8872082,26.0096875 27.6172071,25.7996867 25.637207,25.9796867 L37.2772064,37.6196861 L37.2772064,37.6096878 C37.4172064,37.4896878 37.5872089,37.3796872 37.7172089,37.2496872 Z" id="Fill-3" fill="#FFFFFF"></path>
                        <path d="M15.637207,10.5495701 L6.14720702,1.05957031 C5.11720705,1.3495703 4.21720695,2.29957032 3.49720693,3.01957035 C3.36720693,3.14957035 3.25720703,3.31957041 3.13720703,3.45957041 L14.7772064,15.0995712 C14.9472064,13.1195712 14.557207,11.84957 15.637207,10.5495701 Z" id="Fill-5" fill="#FFFFFF"></path>
                        <g id="Group" fill="#515151">
                            <path d="M3.59716773,4.26999998 C-0.272832155,8.13999987 2.40716743,19.8199997 11.6671677,29.0799999 C20.9271679,38.3400002 32.6071692,41.0200014 36.477169,37.1500015 C37.0871691,36.5400015 38.1171692,35.1999997 38.5671692,34.3199997 L30.097168,25.8500004 C26.4271679,28.2900004 20.067168,28.2799995 16.267168,24.4799995 C12.4571681,20.6699996 12.4571679,14.3199997 14.8871679,10.6499996 L6.42716789,2.18000007 C5.5471679,2.63000005 4.20716774,3.65999997 3.59716773,4.26999998 Z M10.3171673,30.4200001 C1.01716709,21.1199999 -2.82283211,8.01000023 2.25716782,2.92000008 C2.91716784,2.26000005 5.04716814,0.519999996 6.39716816,0.140000001 L6.92716789,0 L17.4271679,10.5 L16.8671684,11.1599998 C14.5071685,13.9899998 14.3071682,19.8299994 17.6071682,23.1399994 C20.9071681,26.4399993 26.7571676,26.2399991 29.5771675,23.8799992 L30.2471676,23.3199997 L40.7471695,33.8199997 L40.6071701,34.3499985 C40.2371701,35.6899985 38.4971713,37.8300017 37.8271713,38.4900017 C36.2871714,40.0300016 34.0171678,40.75 31.3371677,40.75 L31.3271675,40.75 C25.1571674,40.75 16.8171673,36.9200001 10.3171673,30.4200001 Z" id="Fill-7"></path>
                        </g>
                        <g id="Group-12" transform="translate(0.000000, 0.618164)" fill="#061C3F">
                            <path d="M6.42716789,2.18000007 C5.5471679,2.63000005 4.20716774,3.65999997 3.59716773,4.26999998 C-0.272832155,8.13999987 2.40716743,19.8199997 11.6671677,29.0799999 C20.9271679,38.3400002 32.6071692,41.0200014 36.477169,37.1500015 C37.0871691,36.5400015 38.1171692,35.1999997 38.5671692,34.3199997 L30.097168,25.8500004 C26.4271679,28.2900004 20.067168,28.2799995 16.267168,24.4799995 C12.4571681,20.6699996 12.4571679,14.3199997 14.8871679,10.6499996 M2.25716782,2.92000008 C2.91716784,2.26000005 5.04716814,0.519999996 6.39716816,0.140000001 L6.92716789,0 L17.4271679,10.5 L16.8671684,11.1599998 C14.5071685,13.9899998 14.3071682,19.8299994 17.6071682,23.1399994 C20.9071681,26.4399993 26.7571676,26.2399991 29.5771675,23.8799992 L30.2471676,23.3199997 L40.7471695,33.8199997 L40.6071701,34.3499985 C40.2371701,35.6899985 38.4971713,37.8300017 37.8271713,38.4900017 C36.2871714,40.0300016 34.0171678,40.75 31.3371677,40.75 C25.1671677,40.75 16.8271675,36.9200001 10.3271675,30.4200001 L10.3171673,30.4300003 C1.01716709,21.1199999 -2.82283211,8.01000023 2.25716782,2.92000008 Z" id="Fill-10"></path>
                        </g>
                    </g>
                </g>
            </g>
        </g>
    </g>
</svg>