<?xml version="1.0" encoding="UTF-8"?>
<svg width="40.6799221px" height="45.9676552px" viewBox="0 0 40.6799221 45.9676552" version="1.1" xmlns="http://www.w3.org/2000/svg" xmlns:xlink="http://www.w3.org/1999/xlink">
    <title>Statoscop</title>
    <g id="רכיב-חירום" stroke="none" stroke-width="1" fill="none" fill-rule="evenodd">
        <g id="באנר-חירום" transform="translate(-543.857178, -732.435547)">
            <g id="Menu" transform="translate(484.000000, 691.000000)">
                <g id="Group-79" transform="translate(54.000000, 39.000000)">
                    <g id="Statoscop" transform="translate(5.857178, 2.435547)">
                        <path d="M22.8297653,18.6468372 C20.8997654,22.0768373 17.2297654,24.3968372 13.0097656,24.3968372 C9.89976573,24.3968372 7.08976579,23.1368361 5.04976583,21.0968361 C3.01976585,19.0568361 1.75976562,16.2468359 1.75976562,13.1368361 L1.75976562,2.14683604 C1.75976562,1.24683607 2.4897657,0.506835938 3.39976573,0.506835938 L6.14976597,0.506835938 L6.14976597,8.78683567 C6.14976597,15.0068359 11.189765,20.0368366 17.399765,20.0368366 C19.369765,20.0368366 21.2097651,19.5368372 22.8197651,18.6468372" id="Fill-1" fill="#A5F1E1"></path>
                        <path d="M32.9099026,32.3969517 C32.6099026,32.3969517 32.3199036,32.3669532 32.0399036,32.2969532 C30.2499037,31.8969532 28.8999023,30.2969533 28.8999023,28.3869534 C28.8999023,26.4769534 30.2399037,24.8669535 32.0399036,24.4769535 C32.3199036,24.4169535 32.6099026,24.3769531 32.9099026,24.3769531 C35.1299026,24.3769531 36.9199009,26.1669533 36.9199009,28.3869534 C36.9199009,30.5969534 35.1299026,32.3969517 32.9099026,32.3969517 Z" id="Fill-3" fill="#CCEFFC"></path>
                        <path d="M23.5497646,45.9676552 C16.7697644,45.9676552 11.2597656,40.4476581 11.2597656,33.6776581 L11.2597656,24.6376572 C11.2597656,24.0676572 11.7297656,23.5976562 12.2997656,23.5976562 C12.8697656,23.5976562 13.3397655,24.0676572 13.3397655,24.6376572 L13.3397655,33.6776581 C13.3397655,39.3076582 17.919765,43.8976555 23.5597649,43.8976555 C29.1997647,43.8976555 33.7797642,39.3176579 33.7797642,33.6776581 C33.7797642,33.1076581 34.2497651,32.6376572 34.8197651,32.6376572 C35.3897651,32.6376572 35.859766,33.1076581 35.859766,33.6776581 C35.859766,40.4576583 30.3397651,45.9676552 23.5697651,45.9676552" id="Fill-5" fill="#001D40"></path>
                        <g id="Group" fill="#001D40">
                            <path d="M12.29,25.9599991 C5.51999998,25.9599991 0,20.4500003 0,13.6700001 L0,2.68000007 C0,1.20000005 1.20000005,0 2.68000007,0 L5.05000019,0 C5.62000018,0 6.09000015,0.469999969 6.09000015,1.03999996 C6.09000015,1.60999995 5.62000018,2.07999992 5.05000019,2.07999992 L2.68000007,2.07999992 C2.35000005,2.07999992 2.07999992,2.35000005 2.07999992,2.68000007 L2.07999992,13.6700001 C2.07999992,19.3000002 6.66000032,23.8899994 12.3000002,23.8899994 C17.9400001,23.8899994 22.5200005,19.3099999 22.5200005,13.6700001 L22.5200005,2.68000007 C22.5200005,2.35000005 22.2500001,2.07999992 21.9200001,2.07999992 L19.25,2.07999992 C18.68,2.07999992 18.2099991,1.60999995 18.2099991,1.03999996 C18.2099991,0.469999969 18.68,0 19.25,0 L21.9200001,0 C23.4000001,0 24.6000004,1.20000005 24.6000004,2.68000007 L24.6000004,13.6700001 C24.6000004,20.4500003 19.0800004,25.9599991 12.3100004,25.9599991" id="Fill-7"></path>
                        </g>
                        <path d="M30.9999218,28.8370304 C30.9999218,30.9370303 32.6999211,32.6370316 34.799921,32.6370316 C36.8999209,32.6370316 38.5999203,30.9270303 38.5999203,28.8370304 C38.5999203,26.7470305 36.8999209,25.0370312 34.799921,25.0370312 C32.6999211,25.0370312 30.9999218,26.7370305 30.9999218,28.8370304 Z M28.9199219,28.8370304 C28.9199219,25.5970304 31.559921,22.9570312 34.799921,22.9570312 C38.039921,22.9570312 40.6799221,25.5970304 40.6799221,28.8370304 C40.6799221,32.0770304 38.039921,34.7170296 34.799921,34.7170296 C31.559921,34.7170296 28.9199219,32.0770304 28.9199219,28.8370304 Z" id="Fill-10" fill="#001D40"></path>
                    </g>
                </g>
            </g>
        </g>
    </g>
</svg>