<?xml version="1.0" encoding="UTF-8"?>
<svg width="37.6400307px" height="41.5501564px" viewBox="0 0 37.6400307 41.5501564" version="1.1" xmlns="http://www.w3.org/2000/svg" xmlns:xlink="http://www.w3.org/1999/xlink">
    <title>Calendar</title>
    <g id="רכיב-חירום" stroke="none" stroke-width="1" fill="none" fill-rule="evenodd">
        <g id="באנר-חירום" transform="translate(-1017.850000, -733.850000)">
            <g id="Menu" transform="translate(484.000000, 691.000000)">
                <g id="Group-82" transform="translate(528.000000, 39.000000)">
                    <g id="Icons_35_Calendar" transform="translate(6.000000, 4.000000)">
                        <path d="M36.3700085,20.3801876 L36.3700085,40.2701874 L5.39000792,40.2701874 C4.92000792,32.4501872 7.26000786,26.9701865 12.4200077,23.8301864 L12.4200077,23.8301864 C17.5800076,20.6901863 25.560008,19.5401876 36.3700085,20.3801876 Z" id="Rectangle-Copy-3" fill="#A5F1E1"></path>
                        <path d="M36.3701363,7.26953125 L36.3701363,17.009531 L5.39013672,17.009531 L5.39013672,7.26953125 L36.3701363,7.26953125 Z" id="Rectangle-Copy-4" fill="#C5ECF7"></path>
                        <g id="Group-2-Copy-4" fill="#001D40" stroke="#061C3F" stroke-dasharray="0,0" stroke-width="0.300000012">
                            <path d="M18.0699215,8.13015652 C18.5499215,8.13015652 18.9299221,7.74015591 18.9299221,7.27015591 C18.9299221,6.80015591 18.5399215,6.41015625 18.0699215,6.41015625 L13.2799225,6.41015625 C12.7999225,6.41015625 12.4199219,6.80015591 12.4199219,7.27015591 C12.4199219,7.74015591 12.8099225,8.13015652 13.2799225,8.13015652 L18.0699215,8.13015652 Z" id="Fill-4-Copy"></path>
                            <path d="M0.860000014,16.5703125 C0.380000025,16.5703125 0,16.9603131 0,17.4303131 C0,17.9003131 0.390000015,18.2903137 0.860000014,18.2903137 L27.4099998,18.2903137 C27.8899998,18.2903137 28.2700005,17.9003131 28.2700005,17.4303131 C28.2700005,16.9603131 27.8799998,16.5703125 27.4099998,16.5703125 L0.860000014,16.5703125 Z" id="Fill-5-Copy"></path>
                            <path d="M12.0499802,12.5197659 C12.7799802,12.5197659 13.4999801,12.2597656 14.1299801,11.7597656 C14.4999801,11.4697656 14.5699807,10.9197656 14.2799807,10.5497656 C13.9899807,10.1797656 13.4399806,10.109766 13.0699806,10.399766 C12.7399806,10.659766 12.3999802,10.7897663 12.0499802,10.7897663 C10.6399802,10.7897663 9.45998001,8.70976567 9.45998001,6.25976562 C9.45998001,3.80976558 10.6499802,1.72976565 12.0499802,1.72976565 C12.9199802,1.72976565 13.76998,2.56976545 14.24998,3.91976547 C14.40998,4.36976546 14.8999804,4.59976545 15.3499804,4.43976545 C15.7999803,4.27976546 16.0299808,3.78976554 15.8699808,3.33976555 C15.1299808,1.2897656 13.6699802,0.009765625 12.0499802,0.009765625 C9.62998009,0.009765625 7.72998047,2.75976539 7.72998047,6.26976538 C7.72998047,9.77976537 9.62998009,12.5297661 12.0499802,12.5297661" id="Fill-12-Copy"></path>
                            <path d="M25.7298908,12.5199995 C26.4598908,12.5199995 27.1798908,12.2599993 27.8098907,11.7599993 C28.1798908,11.4699993 28.2498923,10.9199992 27.9598923,10.5499992 C27.6698923,10.1799992 27.1198913,10.1099996 26.7498913,10.3999996 C26.4198913,10.6599996 26.0798908,10.79 25.7298908,10.79 C24.4498909,10.79 23.2998909,8.98000002 23.1498909,6.75 C23.1398909,6.59 23.1298923,6.42 23.1298923,6.25 C23.1298923,3.78999996 24.3198925,1.72000003 25.7198925,1.72000003 C26.5898925,1.72000003 27.4398914,2.56000006 27.9198914,3.91000009 C28.0798914,4.36000007 28.5798917,4.5900003 29.0198917,4.43000031 C29.4698917,4.27000031 29.6998922,3.77999991 29.5398922,3.32999992 C28.7998922,1.27999997 27.3398923,0 25.7098923,0 C23.2898922,0 21.3898926,2.75000024 21.3898926,6.26000023 C21.3898926,6.46000023 21.3898926,6.67000036 21.4098911,6.87000036 C21.6198911,10.0900004 23.4698923,12.5199995 25.7098923,12.5199995" id="Fill-13-Copy"></path>
                            <path d="M35.6099968,31.8101578 L35.6099968,38.5201569 C35.6099968,39.0701569 35.1499985,39.5301552 34.5999985,39.5301552 L2.73000002,39.5301552 C2.18000001,39.5301552 1.72000003,39.0801569 1.72000003,38.5201569 L1.72000003,9.14015579 C1.72000003,8.59015578 2.17000002,8.13015652 2.73000002,8.13015652 L4.50999975,8.13015652 C4.98999974,8.13015652 5.36999989,7.74015591 5.36999989,7.27015591 C5.36999989,6.80015591 4.97999975,6.41015625 4.50999975,6.41015625 L2.73000002,6.41015625 C1.22000003,6.41015625 0,7.6301558 0,9.14015579 L0,38.5201569 C0,40.0301569 1.22000003,41.2501564 2.73000002,41.2501564 L34.6099968,41.2501564 C36.1199968,41.2501564 37.3400002,40.0301569 37.3400002,38.5201569 L37.3400002,31.8101578 C37.3400002,31.7768232 37.3400002,31.7501559 37.3400002,31.7301559 C37.3400002,31.250156 36.9499995,30.8701553 36.4799995,30.8701553 C36.0099995,30.8701553 35.6199989,31.2601559 35.6199989,31.7301559 L35.6099968,31.7301559 C35.6099968,31.7634905 35.6099968,31.7901578 35.6099968,31.8101578 Z" id="Fill-16-Copy"></path>
                            <path d="M34.6100273,8.13015652 C35.1600273,8.13015652 35.6200294,8.58015579 35.6200294,9.14015579 L35.6200294,16.5701551 C35.6200294,17.0501551 36.0100301,17.4301558 36.4800301,17.4301558 C36.9500301,17.4301558 37.3400307,17.0401551 37.3400307,16.5701551 L37.3400307,9.14015579 C37.3400307,7.6301558 36.1200273,6.41015625 34.6100273,6.41015625 L26.8900299,6.41015625 C26.4100299,6.41015625 26.0300293,6.80015591 26.0300293,7.27015591 C26.0300293,7.74015591 26.4200299,8.13015652 26.8900299,8.13015652 L26.8900299,8.13015652 L34.6100273,8.13015652 Z" id="Fill-17-Copy"></path>
                        </g>
                        <line x1="14.3901367" y1="27.9296875" x2="23.8201361" y2="27.9296875" id="Path-3-Copy-2" stroke="#061C3F" stroke-width="2" stroke-linecap="round" stroke-linejoin="round" stroke-dasharray="0,0"></line>
                        <line x1="19.0297852" y1="23.0703125" x2="19.0397854" y2="32.5003128" id="Path-3-Copy-3" stroke="#061C3F" stroke-width="2" stroke-linecap="round" stroke-linejoin="round" stroke-dasharray="0,0"></line>
                    </g>
                </g>
            </g>
        </g>
    </g>
</svg>