<?xml version="1.0" encoding="UTF-8"?>
<svg width="47.3214051px" height="48.5237721px" viewBox="0 0 47.3214051 48.5237721" version="1.1" xmlns="http://www.w3.org/2000/svg" xmlns:xlink="http://www.w3.org/1999/xlink">
    <title>Clalit</title>
    <g id="רכיב-חירום" stroke="none" stroke-width="1" fill="none" fill-rule="evenodd">
        <g id="באנר-חירום" transform="translate(-1324.713379, -730.411072)">
            <g id="Menu" transform="translate(484.000000, 691.000000)">
                <g id="Group-83" transform="translate(825.000000, 39.000000)">
                    <g id="Clalit" transform="translate(15.713379, 1.415039)">
                        <g transform="translate(0.000000, 0.000000)" id="Group-2-Copy-2">
                            <path d="M45.411171,19.5893211 C45.361171,19.8293211 45.1511726,20.0093193 44.9011726,20.0093193 L32.791172,20.0093193 C32.651172,20.0093193 32.5211693,19.9593197 32.4211693,19.8593197 L26.1011715,13.5893211 C25.9111715,13.3993211 25.621171,13.3893212 25.411171,13.5493212 L17.4111719,19.8993206 C17.3211719,19.9693206 17.2011722,20.0093193 17.0911722,20.0093193 L3.47117186,20.0093193 C3.18117186,20.0093193 2.95117188,19.7793207 2.95117188,19.4893208 C2.95117188,19.4593208 2.95117188,19.4193204 2.96117187,19.3893204 L4.45117188,11.9893208 C4.50117164,11.7493208 4.71117187,11.5693216 4.96117187,11.5693216 L13.6811724,11.5693216 C13.8111724,11.5693216 13.9411718,11.5193213 14.0311718,11.4293213 L26.2211704,0.139320791 C26.4311704,-0.0606792122 26.7611719,-0.0406791717 26.9511719,0.169320822 C26.9645044,0.182654136 26.974504,0.192654127 26.9811707,0.199320793 L35.8211708,11.3693209 C35.9211708,11.4893209 36.0711707,11.5693216 36.2311707,11.5693216 L46.3911705,11.5693216 C46.6811705,11.5693216 46.911171,11.7993211 46.911171,12.0893211 C46.911171,12.1193211 46.911171,12.1593215 46.9011726,12.1893215 L46.9011726,12.1893215 L45.411171,19.5893211 Z" id="Path" fill="#CCEFFC"></path>
                            <path d="M43.9610939,27.269413 C44.0210939,26.989413 43.8310941,26.7094143 43.5510941,26.6594143 C43.5210941,26.6594143 43.4810956,26.6494141 43.4510956,26.6494141 L29.8210926,26.6494141 C29.7010926,26.6494141 29.5910929,26.6894128 29.5010929,26.7594128 L21.5010929,33.1094151 C21.2910929,33.2694151 21.0010924,33.2594141 20.8110924,33.0694141 L14.4910936,26.7994137 C14.3910936,26.6994137 14.2610938,26.6494141 14.1210937,26.6494141 L2.01109385,26.6494141 C1.76109385,26.6494141 1.55109375,26.8194141 1.50109375,27.0694141 L0.0110937506,34.4694118 C-0.0489062481,34.7494119 0.141093731,35.0294125 0.421093732,35.0794125 C0.451093731,35.0794125 0.491093727,35.0894146 0.521093726,35.0894146 L9.01109409,35.0894146 C9.15109409,35.0894146 9.29109421,35.1494141 9.39109421,35.2494144 L19.9110928,46.4894123 C20.1110928,46.6994123 20.4310923,46.7094128 20.6410923,46.5094128 L20.6610928,46.4894123 L31.1810932,35.2494144 C31.2810932,35.1394144 31.4210924,35.0894146 31.5610924,35.0894146 L41.9610939,35.0894146 C42.2110939,35.0894146 42.421096,34.9194126 42.471096,34.6694126 L43.9610939,27.269413 Z" id="Path-Copy" fill="#A5F1E1"></path>
                            <path d="M46.321209,17.7593193 L45.95121,19.5793209 C45.90121,19.8193209 45.6912079,19.999321 45.4412079,19.999321 L33.331213,19.999321 C33.191213,19.999321 33.0612103,19.9493195 32.9612103,19.8493195 L26.6412106,13.5793209 C26.4512106,13.3893209 26.1612119,13.3793209 25.9512119,13.5393209 L17.9512119,19.8893204 C17.8612119,19.9593204 17.7412103,19.999321 17.6312103,19.999321 L4.01121116,19.999321 C3.72121117,19.999321 3.49121094,19.7693205 3.49121094,19.4793205 C3.49121094,19.4493205 3.49121094,19.4093201 3.50121093,19.3793201 L4.99121094,11.9793215 C5.0412107,11.7393215 5.25121093,11.5593214 5.50121093,11.5593214 L14.2212114,11.5593214 C14.3512114,11.5593214 14.4812109,11.5093211 14.5712109,11.4193211 L26.7612114,0.139320791 C26.9712114,-0.0606792122 27.3012109,-0.0406791717 27.4912109,0.169320822 C27.5045447,0.182654136 27.514545,0.192654127 27.5212116,0.199320793 L36.3612099,11.3693209 C36.4612099,11.4893209 36.6112097,11.5693216 36.7712097,11.5693216 L38.7712097,11.5693216" id="Path-Copy-3" stroke="#061C3F" stroke-width="2" stroke-linecap="round" stroke-linejoin="round" stroke-dasharray="0,0" fill-rule="nonzero"></path>
                            <path d="M5.51117229,35.0894146 L8.88117218,35.0894146 C9.11117218,35.0894146 9.32117161,35.1794129 9.48117161,35.3494129 L19.6911716,46.2594128 C20.0011716,46.5894128 20.5111713,46.6094137 20.8411713,46.2994137 C20.8511713,46.2894137 20.8711703,46.2694128 20.8811703,46.2594128 L31.0911713,35.3494129 C31.2411713,35.1794129 31.4611716,35.0894146 31.6911716,35.0894146 L41.7211723,35.0894146 C42.1111723,35.0894146 42.4411716,34.8194147 42.5211716,34.4294147 L43.8911705,27.6294136 C43.9811705,27.1894136 43.6911711,26.7594145 43.2511711,26.6694145 C43.2011719,26.6594145 43.1411713,26.6494141 43.0911713,26.6494141 L29.9211712,26.6494141 C29.7411712,26.6494141 29.561171,26.7094144 29.411171,26.8294144 L21.7011719,32.9494152 C21.3811719,33.2094152 20.9111719,33.1794138 20.621172,32.8894138 L14.5711718,26.8894138 C14.4211718,26.7394138 14.2111718,26.6494141 13.9911718,26.6494141 L2.25117183,26.6494141 C1.86117184,26.6494141 1.53117187,26.9194139 1.45117188,27.3094139 L1.20117188,28.5494137" id="Path-2" stroke="#061C3F" stroke-width="2" stroke-linecap="round" stroke-dasharray="0,0" fill-rule="nonzero"></path>
                        </g>
                    </g>
                </g>
            </g>
        </g>
    </g>
</svg>