<?xml version="1.0" encoding="UTF-8"?>
<svg width="39.1419907px" height="43.6253033px" viewBox="0 0 39.1419907 43.6253033" version="1.1" xmlns="http://www.w3.org/2000/svg" xmlns:xlink="http://www.w3.org/1999/xlink">
    <title>Doctor</title>
    <g id="רכיב-חירום" stroke="none" stroke-width="1" fill="none" fill-rule="evenodd">
        <g id="באנר-חירום" transform="translate(-1175.000000, -733.000000)">
            <g id="Menu" transform="translate(484.000000, 691.000000)">
                <g id="Group-84" transform="translate(682.000000, 39.000000)">
                    <g id="Group-131" transform="translate(9.000000, 3.000000)">
                        <path d="M28.4175276,4.31386724 L26.9889564,12.7138672 L9.87832263,12.7138672 L8.44975127,4.31386724 C8.32085762,3.58343247 8.82569112,2.87386715 9.59905306,2.70691063 L18.4282684,0.713867188 L27.2682262,2.70691063 C28.0415881,2.88430194 28.5356798,3.58343247 28.4067862,4.31386724" id="Fill-3" fill="#C5ECF7"></path>
                        <g id="Frame" transform="translate(10.428711, 12.713867)" fill="#FFE6D8">
                            <path d="M16.2999992,1.13999999 C16.2999992,5.77999985 12.7499995,9.59999961 8.14999962,10.1899996 C3.54999971,9.6099996 0,5.77999985 0,1.13999999 L0,0.0399999991 C0.013333333,0.013333333 0.0266666661,-1.77635684e-15 0.0399999991,-1.77635684e-15 L16.2600002,-1.77635684e-15 C16.2866662,0.013333333 16.2999992,0.0266666661 16.2999992,0.0399999991 L16.2999992,1.13999999 Z" id="Fill-7"></path>
                        </g>
                        <g id="Group-27">
                            <g id="Group-13" transform="translate(8.066895, 0.000000)" fill="#001D40">
                                <path d="M1.09890186,13.4275522 L0.0101899521,6.83848443 C-0.0598829685,6.41067081 0.238848964,6.00793573 0.678464351,5.93933803 C1.11881734,5.87074033 1.53335387,6.16135901 1.60342679,6.58917263 L2.47454396,11.8579185 L20.1557861,11.8579185 L21.3868557,4.40732301 C21.4362756,4.10564065 21.2334333,3.81428478 20.9236373,3.74199903 L11.4593675,1.54834784 C11.025653,1.44803292 10.7586378,1.02464497 10.8611656,0.602732246 C10.9651685,0.181557128 11.4003591,-0.0788191131 11.8340736,0.0214958061 L21.2983422,2.21514703 C22.4246722,2.47626086 23.1630213,3.54874517 22.9800941,4.65589727 L21.5314265,13.4275522 L1.09890186,13.4275522 Z" id="Fill-11"></path>
                            </g>
                            <path d="M26.1486514,42.7852974 L2.57791003,42.7852974 C1.63114198,42.7852974 0.86328125,42.1479987 0.86328125,41.3626456 L0.86328125,35.772542 C0.86328125,33.6997835 2.50646717,32.0030517 4.69297913,31.4231302 C7.35077391,31.8980306 10.0103696,32.3939353 12.6681644,32.3939353 C13.2421088,32.3939353 13.8184548,32.3703696 14.3929995,32.3278488 C16.6695655,32.164938 18.946131,31.7156525 21.222697,31.3150352 C22.199483,31.142903 23.1588598,31.1966943 24.0335846,31.4287654 C26.2206969,32.008687 27.8632812,33.7054189 27.8632812,35.7781774 L27.8632812,41.3626456 C27.8632812,42.1479987 27.0954194,42.7852974 26.1486514,42.7852974 Z" id="Fill-14" fill="#A5F1E1"></path>
                            <path d="M9.73485895,30.3783548 L9.38965769,26.5936798 C9.34761394,26.1319362 9.69724082,25.7240381 10.1722613,25.6819944 C10.6480195,25.6414258 11.0669817,25.9814639 11.1090254,26.4432075 L11.4549643,30.2308327 C11.497008,30.6925763 11.1459059,31.0997371 10.6708854,31.1410433 C10.645069,31.1432561 10.6192528,31.1439934 10.594174,31.1439934 C10.1508707,31.1439934 9.77468987,30.8150197 9.73485895,30.3783548 Z" id="Fill-16" fill="#001D40"></path>
                            <path d="M28.7819381,32.9522971 C28.3076553,32.9139414 27.9536027,32.5089937 27.992696,32.0465126 L28.4883695,26.2061209 L28.5621305,26.0608118 C28.7760372,25.6455377 29.2960518,25.4758875 29.7216524,25.6831558 C30.0653784,25.8498555 30.2453551,26.2083337 30.190772,26.5579606 L29.7135387,32.1844455 C29.6766582,32.6233232 29.2990022,32.9552479 28.8542237,32.9552479 C28.8306202,32.9552479 28.8070168,32.9537724 28.7819381,32.9522971 Z" id="Fill-18" fill="#001D40"></path>
                            <path d="M6.33521118,38.7353026 L5.98042095,34.8193331 C5.73848499,32.1469734 7.7779756,29.7807213 10.5255713,29.5454238 C13.2739049,29.3093887 15.7072793,31.2935586 15.9492152,33.9666561 L16.303268,37.8818881 C16.3379357,38.261757 16.2184428,38.6320374 15.9661803,38.9233932 C15.7146554,39.2154867 15.36134,39.3947258 14.9711445,39.4279183 L13.9923368,39.5120054 C13.5187915,39.5533115 13.0990916,39.2110606 13.0570478,38.7493169 C13.0150041,38.2875733 13.3668435,37.8796754 13.8411265,37.8398445 L14.5610338,37.7778852 L14.2291094,34.1134404 C14.0705233,32.3630927 12.4787617,31.0656373 10.6767814,31.2175849 C8.87701395,31.372483 7.54120299,32.9222008 7.69978906,34.6725486 L8.03171334,38.3362555 L8.64024142,38.2846228 C9.11673722,38.2418415 9.53422423,38.5848301 9.57626798,39.0465737 C9.61831173,39.509055 9.2672093,39.9162157 8.79218871,39.9575218 L7.92475987,40.0312823 C7.8812409,40.0349703 7.83845962,40.0371838 7.79494065,40.0371838 C7.04331642,40.0371838 6.40159605,39.4766003 6.33521118,38.7353026 Z" id="Fill-20" fill="#001D40"></path>
                            <path d="M28.7978694,11.8808594 C29.2684644,11.8808594 29.650547,12.2526146 29.650547,12.7099326 L29.650547,13.8156092 C29.650547,19.2300936 25.1957276,23.6517658 19.6637442,23.7976508 L19.3815451,23.8013678 C13.7196531,23.8013678 9.11328125,19.3218645 9.11328125,13.8156092 L9.11328125,12.7099326 C9.11328125,12.2526146 9.49536308,11.8808594 9.96522043,11.8808594 L28.7978694,11.8808594 Z M28.0365353,13.4501953 L10.7270508,13.4501953 L10.7270508,13.8153121 C10.7270508,18.4563516 14.6098278,22.2314377 19.3814246,22.2314377 C24.1537588,22.2314377 28.0365353,18.4563516 28.0365353,13.8153121 L28.0365353,13.4501953 Z" id="Fill-9" fill="#001D40"></path>
                            <path d="M28.8916092,31.6590224 C29.8549274,31.7364714 30.7289948,32.173874 31.3537502,32.890093 C31.9792431,33.6077872 32.27945,34.5179977 32.1997882,35.454762 C32.1201263,36.3915263 31.6701848,37.2419904 30.9333128,37.8497808 C30.2731522,38.3926616 29.4544053,38.6840172 28.6002533,38.6840172 C28.4992008,38.6840172 28.3974106,38.6803292 28.2963581,38.6714779 C27.3330399,38.5947665 26.4582349,38.1573636 25.8342171,37.440407 C25.2087242,36.7227128 24.9085171,35.8125026 24.9881789,34.8764759 C25.1519283,32.9417257 26.9030137,31.4960107 28.8916092,31.6590224 Z M28.5919639,33.3261719 C27.6190567,33.3261719 26.7899833,34.0541931 26.7081086,35.0145616 C26.6225459,36.0250876 27.3985112,36.9153831 28.4378034,36.998733 C28.9423284,37.0393016 29.4313639,36.8858786 29.8163961,36.5687062 C30.202166,36.2507962 30.4374633,35.8060173 30.4787694,35.3162441 C30.5643321,34.3057182 29.7883668,33.4154227 28.7490747,33.3328104 C28.6967044,33.3283847 28.6443342,33.3261719 28.5919639,33.3261719 Z" id="Fill-22" fill="#001D40"></path>
                            <g id="Group-26" transform="translate(0.000000, 25.280273)" fill="#001D40">
                                <path d="M9.19282881,0.160877876 C9.59703888,0.244227751 10.0005113,0.328315252 10.4039838,0.413140351 C12.7584337,0.906601152 15.1940207,1.41628939 17.5595348,1.61323114 C18.263952,1.67371512 18.9536169,1.70395708 19.6093518,1.70395708 C22.6298633,1.70395708 25.7462637,1.04895976 28.7601365,0.415353173 L29.9403109,0.169729203 C32.2003467,-0.297177655 34.5245549,0.247178266 36.3191592,1.66043817 C38.1122882,3.0744356 39.1419907,5.17219715 39.1419907,7.41674296 L39.1419907,15.4572886 C39.1419907,17.0497876 37.8091322,18.3450298 36.1723764,18.3450298 L2.96961636,18.3450298 C1.33212306,18.3450298 0,17.0497876 0,15.4572886 L0,7.40936704 C0,4.17126124 2.13242906,1.33293949 5.3056257,0.346017887 C6.55439881,-0.040489536 7.89832396,-0.104661571 9.19282881,0.160877876 Z M7.60678702,1.67871095 C7.00415992,1.67871095 6.40374542,1.76869932 5.82988509,1.94572562 C3.37585779,2.7084139 1.7265625,4.90427725 1.7265625,7.40919936 L1.7265625,15.457121 C1.7265625,16.12392 2.28419538,16.6660633 2.96943475,16.6660633 L36.172197,16.6660633 C36.8566988,16.6660633 37.4150696,16.12392 37.4150696,15.457121 L37.4150696,7.41657589 C37.4150696,5.68098053 36.6191866,4.05823949 35.2317428,2.9651021 C33.8435615,1.8719647 32.0460068,1.45152719 30.2993472,1.81221828 L29.125073,2.05636705 C26.0226868,2.70841392 22.8140854,3.38332665 19.6091713,3.38332665 C18.9025413,3.38332665 18.1627183,3.35013427 17.4096188,3.28522463 C14.9371513,3.07943157 12.4477191,2.55794155 10.0408988,2.05415423 C9.63890157,1.97080436 9.23764193,1.88597924 8.83564465,1.80336697 C8.42995934,1.72001709 8.0183732,1.67871095 7.60678702,1.67871095 Z" id="Fill-24"></path>
                            </g>
                        </g>
                    </g>
                </g>
            </g>
        </g>
    </g>
</svg>