<?xml version="1.0" encoding="UTF-8"?>
<svg width="49.6600343px" height="44.4300003px" viewBox="0 0 49.6600343 44.4300003" version="1.1" xmlns="http://www.w3.org/2000/svg" xmlns:xlink="http://www.w3.org/1999/xlink">
    <title>Way</title>
    <g id="רכיב-חירום" stroke="none" stroke-width="1" fill="none" fill-rule="evenodd">
        <g id="באנר-חירום" transform="translate(-695.999985, -733.000000)">
            <g id="Menu" transform="translate(484.000000, 691.000000)">
                <g id="Group-80" transform="translate(212.000000, 39.000000)">
                    <g id="Way" transform="translate(1.000000, 4.000000)">
                        <path d="M42.7450581,7.89964771 C43.1250581,8.29964772 43.1150576,8.92964852 42.7250576,9.30964851 L42.6950588,9.33964825 L39.365057,12.3196478 C39.1850586,12.4796478 38.9450588,12.5696478 38.6950588,12.5696478 L27.1850586,12.5696478 C26.6350586,12.5696478 26.1850586,12.1196478 26.1850586,11.5696478 L26.1850586,4.13964844 C26.1850586,3.58964819 26.6350586,3.13964844 27.1850586,3.13964844 L37.7250576,3.13964844 C37.9950576,3.13964844 38.2550588,3.24964839 38.4450588,3.43964839 L38.4450588,3.44964838 L42.7450581,7.89964771 Z" id="Path-Copy" fill="#A5F1E1"></path>
                        <path d="M24.6147461,11.5699997 C24.6147461,12.1199997 25.0647461,12.5699997 25.6147461,12.5699997 L40.5647449,12.5699997 C40.8047449,12.5699997 41.0347465,12.4799999 41.2147465,12.3299999 L47.3147449,7.03999996 C47.7347449,6.67999995 47.7747434,6.0500001 47.4147434,5.63000011 C47.3847434,5.59000012 47.3547449,5.56000021 47.3147449,5.53000021 L41.2147465,0.24000001 C41.0347465,0.0800000131 40.8047449,0 40.5647449,0 L25.6147461,0 C25.0647461,0 24.6147461,0.449999988 24.6147461,1 L24.6147461,11.5699997 Z" id="Path" stroke="#061C3F" stroke-width="2" stroke-linecap="round" stroke-dasharray="0,0" fill-rule="nonzero"></path>
                        <path d="M3.2349121,24.4701157 C2.8849121,24.8501157 2.8849121,25.4401163 3.2349121,25.8301163 L8.11491203,31.1201172 C8.30491203,31.3301172 8.57491252,31.4401169 8.84491253,31.4401169 L20.4649105,31.4401169 C21.0149105,31.4401169 21.4649105,30.9901169 21.4649105,30.4401169 L21.4649105,19.8701172 C21.4649105,19.3201172 21.0149105,18.8701172 20.4649105,18.8701172 L8.8549118,18.8701172 C8.5749118,18.8701172 8.30491227,18.9901169 8.12491226,19.1901169 L8.11491203,19.1801167 L3.2349121,24.4701157 Z" id="Path-2" fill="#CCEFFC"></path>
                        <path d="M0.344853967,24.3903503 C-0.0751460195,24.7503504 -0.115146056,25.3803502 0.244853958,25.8003502 C0.274853958,25.8403502 0.304853968,25.8703506 0.344853967,25.9003506 L6.44485378,31.1903515 C6.62485379,31.3503515 6.85485388,31.4303513 7.09485388,31.4303513 L22.0448532,31.4303513 C22.5948532,31.4303513 23.0448532,30.9803513 23.0448532,30.4303513 L23.0448532,19.8603516 C23.0448532,19.3103516 22.5948532,18.8603516 22.0448532,18.8603516 L7.09485388,18.8603516 C6.85485388,18.8603516 6.62485379,18.9503513 6.44485378,19.1003513 L6.43485403,19.1003513 L0.344853967,24.3903503 Z" id="Path-3" stroke="#061C3F" stroke-width="2" stroke-linecap="round" stroke-dasharray="0,0" fill-rule="nonzero"></path>
                        <path d="M21.2949505,36.7099991 C21.2949505,36.9899991 21.0749505,37.2099991 20.7949505,37.2099991 L7.82495117,37.2099991 C7.54495117,37.2099991 7.32495117,37.4299991 7.32495117,37.7099991 L7.32495117,41.9300003 C7.32495117,42.2100003 7.54495117,42.4300003 7.82495117,42.4300003 L39.8249512,42.4300003 C40.1049512,42.4300003 40.3249512,42.2100003 40.3249512,41.9300003 L40.3249512,37.7099991 C40.3249512,37.4299991 40.1049512,37.2099991 39.8249512,37.2099991 L26.8549519,37.2099991 C26.5749519,37.2099991 26.3549519,36.9899991 26.3549519,36.7099991 L26.3549519,0.5 C26.3549519,0.219999999 26.1349519,0 25.8549519,0 L21.7949505,0 C21.5149505,0 21.2949505,0.219999999 21.2949505,0.5 L21.2949505,36.7099991 Z" id="Path-4" fill="#FDE6D2"></path>
                        <path d="M20.5749512,36.7099991 C20.5749512,36.9899991 20.3549512,37.2099991 20.0749512,37.2099991 L7.82495117,37.2099991 C7.54495117,37.2099991 7.32495117,37.4299991 7.32495117,37.7099991 L7.32495117,41.9300003 C7.32495117,42.2100003 7.54495117,42.4300003 7.82495117,42.4300003 L39.8249512,42.4300003 C40.1049512,42.4300003 40.3249512,42.2100003 40.3249512,41.9300003 L40.3249512,37.7099991 C40.3249512,37.4299991 40.1049512,37.2099991 39.8249512,37.2099991 L27.5749512,37.2099991 C27.2949512,37.2099991 27.0749512,36.9899991 27.0749512,36.7099991 L27.0749512,0.5 C27.0749512,0.219999999 26.8549512,0 26.5749512,0 L21.0649509,0 C20.7849509,0 20.5649509,0.219999999 20.5649509,0.5 L20.5749512,0.5 L20.5749512,36.7099991 Z" id="Path-5" stroke="#061C3F" stroke-width="2" stroke-linecap="round" stroke-dasharray="0,0" fill-rule="nonzero"></path>
                    </g>
                </g>
            </g>
        </g>
    </g>
</svg>