<?xml version="1.0" encoding="UTF-8"?>
<svg width="32px" height="32px" viewBox="0 0 32 32" version="1.1" xmlns="http://www.w3.org/2000/svg" xmlns:xlink="http://www.w3.org/1999/xlink">
    <title>LanguageIcon</title>
    <g id="דף-בית" stroke="none" stroke-width="1" fill="none" fill-rule="evenodd" stroke-dasharray="0,0" stroke-linecap="round" stroke-linejoin="round">
        <g transform="translate(-299.000000, -28.000000)" id="Header/New/Desktop" stroke="#00667D">
            <g id="Icons/24px/Globe" transform="translate(300.000000, 29.000000)">
                <path d="M30,15 C30,6.71572844 23.2842716,0 15,0 C6.71572844,0 0,6.71572844 0,15 C0,23.2842716 6.71572844,30 15,30 C23.2842716,30 30,23.2842716 30,15 Z" id="Vector" fill-rule="nonzero"></path>
                <line x1="0" y1="15" x2="30" y2="15" id="Vector"></line>
                <path d="M20,15 C20,6.71572924 17.7614244,0 15,0 C12.238576,0 10,6.71572924 10,15 C10,23.2842731 12.238576,30 15,30 C17.7614244,30 20,23.2842731 20,15 Z" id="Vector" fill-rule="nonzero"></path>
            </g>
        </g>
    </g>
</svg>