<?xml version="1.0" encoding="utf-8"?>
<!-- Generator: Adobe Illustrator 25.4.1, SVG Export Plug-In . SVG Version: 6.00 Build 0)  -->
<svg version="1.1" id="Layer_1" xmlns="http://www.w3.org/2000/svg" xmlns:xlink="http://www.w3.org/1999/xlink" x="0px" y="0px"
	 viewBox="0 0 468.09 232.97" style="enable-background:new 0 0 468.09 232.97;" xml:space="preserve">
<style type="text/css">
	.st0{fill:#47B549;}
	.st1{fill:#00B4D5;}
</style>
<g>
	<g>
		<g>
			<path class="st0" d="M136.9,101.12c0,0,0.88,5.07-1.79,18.08l-5.16,25.11h17.6l5.17-25.11c2.43-11.81,1.79-18.08,1.79-18.08
				H136.9z"/>
		</g>
		<g>
			<path class="st0" d="M261.92,101.12l-3.69,17.93h14.4c6.15,0,9.8,3.14,6.42,19.57c-3.01,14.64-7.79,19.58-14.3,19.58h-14.58
				l-3.69,17.93h22.29c12.56,0,22.85-11.65,28.17-37.51c5.78-28.09-2.27-37.5-12.72-37.5H261.92z"/>
		</g>
		<g>
			<path class="st0" d="M162.99,87.26c-0.09,1.44,0.01,3.73-0.33,5.41c-0.58,3.44-1.44,8.53-1.44,8.53
				c-1.45,10.72,0.92,17.93,12.06,17.93h5.34c9.56-0.75,5.33,5.9,2.16,14.04l-16.01,43.04h18.34l17.85-48.42
				c6.66-18.12,0.15-26.3-6.53-26.3c-5.21,0-7.29-0.15-11.56-0.15c-4.53,0-3.84-4.15-3.11-8.13c0.41-2.29,0.29-4.64,0.43-5.96
				L162.99,87.26z"/>
		</g>
		<g>
			<path class="st0" d="M70.65,150.7c-3.32,14.93-9.79,11.35-14.2,10.58c-1.26,5.6-3.09,14.08-3.09,14.08s7.9,1.52,14.37,1.37
				c9.45-0.21,15.94-4.53,20.63-27.2l6.28-30.48h6.33c7.79,0,7.72,3.43,5.6,13.75l-8.92,43.34h17.61l9.61-47.13
				c5.53-25.46-2.58-27.83-14.48-27.83l-29.67-0.05L70.65,150.7z"/>
		</g>
		<g>
			<path class="st0" d="M211.11,87.26c-0.08,1.44,0.01,3.73-0.33,5.41c-0.58,3.44-1.43,8.53-1.43,8.53
				c-1.45,10.72,0.92,17.93,12.06,17.93h5.34c9.55-0.75,5.33,5.9,2.15,14.04l-16.01,43.04h18.34l17.85-48.42
				c6.67-18.12,0.16-26.3-6.53-26.3c-5.23,0-7.3-0.15-11.57-0.15c-4.53,0-3.84-4.15-3.11-8.13c0.42-2.29,0.29-4.64,0.43-5.96
				L211.11,87.26z"/>
		</g>
		<g>
			<path class="st1" d="M361.92,89.07l-22.88,19.21c-0.99,0.87-2.22,1.28-3.51,1.28l-15.28,0.01c-1.11,0-2.31,0.94-2.53,2.04
				l-2.99,14.3c-0.22,1.11,0.56,1.97,1.67,1.97h27.26c2.95,0,4.45-1.38,4.77-1.65l16.47-13.76c0.49-0.45,1.09-0.65,1.81-0.65
				c0.79,0,1.5,0.33,2,0.87l10.88,12.98c1.86,2.22,4.26,2.26,5.25,2.26h24.4c1.11,0,2.19-0.9,2.41-2.02l3.05-14.37
				c0.22-1.09-0.49-1.99-1.6-1.99l-20.57-0.02c-0.86,0-1.58-0.37-2-0.94l-16.31-19.45c-1.35-1.7-3.34-2.75-5.84-2.75
				C365.48,86.39,363.69,87.56,361.92,89.07"/>
		</g>
		<g>
			<path class="st0" d="M312.75,144.92c-1.09,0-2.19,0.89-2.41,2l-3.04,14.36c-0.23,1.11,0.48,2,1.58,2l20.58,0.02
				c0.85,0,1.58,0.37,2,0.94l16.31,19.45c1.35,1.69,3.33,2.75,5.82,2.75c2.9,0,4.71-1.17,6.48-2.67l22.87-19.2
				c0.99-0.88,2.23-1.3,3.52-1.3h15.28c1.11,0,2.32-0.95,2.54-2.04l2.99-14.31c0.22-1.11-0.57-1.97-1.67-1.97h-27.25
				c-2.96,0-4.47,1.38-4.77,1.65l-16.48,13.76c-0.49,0.46-1.09,0.67-1.8,0.67c-0.79,0-1.5-0.33-1.99-0.87l-10.89-12.99
				c-1.87-2.21-4.25-2.25-5.25-2.25L312.75,144.92z"/>
		</g>
	</g>
	<g>
		<path class="st0" d="M221.64,47.43h15.15c4.07,0,6.62,0.78,7.64,2.35c0.96,1.44,1.09,4.44,0.38,9.01l-2.59,16.7h-7.31l2.49-16.1
			c0.4-2.55,0.44-4.17,0.13-4.85c-0.44-1-1.76-1.5-3.96-1.5h-5.49l-2.07,13.34c-0.63,4.05-1.43,6.71-2.41,7.97
			c-1.02,1.33-2.87,1.99-5.56,1.99c-3.31,0-4.89-0.46-4.75-1.39l0.87-5.59c0.72,0.64,1.4,0.95,2.05,0.95c1.25,0,2.06-1.22,2.44-3.66
			L221.64,47.43z"/>
		<path class="st0" d="M249.99,47.43h7.62c1.72,3.73,3.42,6.82,5.08,9.28l4.98-9.28h6.9l-8.6,14.98l4.44,7.53l-0.86,5.54h-23.56
			l0.87-5.59h16.25C258.04,63.01,253.66,55.52,249.99,47.43z"/>
		<path class="st0" d="M282.83,75.48h-7.31l3.49-22.56c0.34-2.22,0.4-4.05,0.15-5.49h7.07c0.33,1.93,0.35,3.79,0.07,5.59
			L282.83,75.48z"/>
		<path class="st0" d="M291.58,47.43h10.88c7.89,0,11.19,4.18,9.9,12.52c-0.44,2.86-1.23,5.08-2.35,6.66
			c-0.76,1.07-1.7,1.88-2.84,2.4c-0.95,0.45-1.43,0.72-1.44,0.82c-0.03,0.21,0.34,0.3,1.14,0.24c1.47-0.12,2.2-0.19,2.18-0.19h4.27
			l-0.87,5.59h-24.88l0.87-5.59h8.85c3.96,0,6.4-2.96,7.32-8.87c0.46-2.94,0.27-5.03-0.56-6.25c-0.81-1.16-2.38-1.75-4.69-1.75
			h-8.63L291.58,47.43z"/>
		<path class="st0" d="M318.49,60.34h7.36l-4.02,25.97h-7.36L318.49,60.34z M336.28,52.91h-17.93l0.85-5.49h25.24l-2.67,17.22
			c-0.47,3.05-1.71,5.68-3.71,7.88c-2.14,2.38-4.6,3.57-7.39,3.57c-1.42,0-2.74-0.19-3.94-0.57l0.86-5.54
			c0.89,0.15,1.88,0.22,2.96,0.22c0.93,0,1.75-0.52,2.46-1.54c0.71-1.03,1.19-2.37,1.45-4.02L336.28,52.91z"/>
		<path class="st0" d="M350.65,47.43h6.14c0.24,0,0.4,0.57,0.48,1.7c0.08,1.14,0.05,2.17-0.09,3.1c0.08,0.07,0.18,0.11,0.29,0.11
			c-0.02,0,0.38-0.5,1.19-1.5c0.93-1.18,1.94-2.12,3.03-2.81c1.54-1,3.22-1.5,5.02-1.5c4.01,0,6.52,1.37,7.52,4.09
			c0.78,2.09,0.77,5.71-0.02,10.84c-1.53,9.88-5.13,14.81-10.8,14.81c-1.3,0-2.7-0.26-4.22-0.79l0.85-5.49
			c0.49,0.33,1.03,0.5,1.63,0.5c2.58,0,4.35-3.01,5.28-9.03c0.54-3.46,0.65-5.83,0.34-7.12c-0.37-1.55-1.45-2.32-3.24-2.32
			c-4.16,0-6.76,3.41-7.82,10.23l-2.05,13.23h-7.26l3.07-19.78c0.23-1.51,0.43-3.26,0.59-5.26
			C350.71,48.43,350.74,47.43,350.65,47.43z"/>
	</g>
</g>
</svg>
