<?xml version="1.0" encoding="utf-8"?>
<!-- Generator: Adobe Illustrator 27.1.1, SVG Export Plug-In . SVG Version: 6.00 Build 0)  -->
<svg version="1.1" id="Layer_1" xmlns="http://www.w3.org/2000/svg" xmlns:xlink="http://www.w3.org/1999/xlink" x="0px" y="0px"
	 viewBox="0 0 48 48" style="enable-background:new 0 0 48 48;" xml:space="preserve">
<style type="text/css">
	.st0{fill:#FFFFFF;}
</style>
<path class="st0" d="M20.5,5c8.6,0,15.5,7,15.5,15.5S29.1,36,20.5,36S5,29,5,20.5S11.9,5,20.5,5z M20.5,1C9.7,1,1,9.7,1,20.5
	S9.7,40,20.5,40S40,31.3,40,20.5S31.3,1,20.5,1z"/>
<path class="st0" d="M45.9,47.9c-0.5,0-1-0.2-1.4-0.6l-13-13c-0.8-0.8-0.8-2,0-2.8c0.8-0.8,2-0.8,2.8,0l13,13c0.8,0.8,0.8,2,0,2.8
	C47,47.7,46.5,47.9,45.9,47.9z"/>
</svg>
