<?xml version="1.0" encoding="UTF-8"?>
<svg width="25px" height="24px" viewBox="0 0 25 24" version="1.1" xmlns="http://www.w3.org/2000/svg" xmlns:xlink="http://www.w3.org/1999/xlink">
    <title></title>
    <g id="סקיצות-קודמות" stroke="none" stroke-width="1" fill="none" fill-rule="evenodd">
        <g id="סקיצה-קודמת" transform="translate(-252.000000, -6487.000000)" fill="#FFFFFF" fill-rule="nonzero">
            <g id="Video-Gallery" transform="translate(20.000000, 5843.000000)">
                <g id="Group-4-Copy-4" transform="translate(0.000000, 579.000000)">
                    <g id="" transform="translate(232.890909, 65.000000)">
                        <path d="M16.7109375,11.0390625 C17.0437503,11.2453122 17.25,11.6062503 17.25,12 C17.25,12.3937497 17.0437503,12.7546878 16.7109375,12.9609375 L9.9609375,17.0859375 C9.61406279,17.296875 9.17812514,17.3062506 8.82656264,17.1046872 C8.47031236,16.9078131 8.25,16.5328131 8.25,16.125 L8.25,7.83281279 C8.25,7.46718693 8.47031236,7.09218693 8.82656264,6.89531279 C9.17812514,6.69374943 9.61406279,6.66093779 9.9609375,6.9140625 L16.7109375,11.0390625 Z M9.75,8.54531193 L9.75,15.4546881 L15.4078131,11.9578128 L9.75,8.54531193 Z M0,12 C0,5.37187529 5.37187529,0 12,0 C18.6281247,0 24,5.37187529 24,12 C24,18.6281247 18.6281247,24 12,24 C5.37187529,24 0,18.6281247 0,12 Z M12,22.5 C17.7984381,22.5 22.5,17.7984381 22.5,12 C22.5,6.20156193 17.7984381,1.5 12,1.5 C6.20156264,1.5 1.5,6.20156193 1.5,12 C1.5,17.7984381 6.20156264,22.5 12,22.5 Z" id="Shape"></path>
                    </g>
                </g>
            </g>
        </g>
    </g>
</svg>